<svg xmlns="http://www.w3.org/2000/svg" xmlns:xlink="http://www.w3.org/1999/xlink" width="500" zoomAndPan="magnify" viewBox="0 0 375 149.999998" height="200" preserveAspectRatio="xMidYMid meet" version="1.0"><defs><g/><clipPath id="e8320fdb13"><path d="M 7.582031 6 L 131.332031 6 L 131.332031 144 L 7.582031 144 Z M 7.582031 6 " clip-rule="nonzero"/></clipPath><clipPath id="78ccc70a0a"><path d="M 55 12.332031 L 84 12.332031 L 84 64 L 55 64 Z M 55 12.332031 " clip-rule="nonzero"/></clipPath><clipPath id="4622fd653c"><path d="M 55 86.78125 L 84 86.78125 L 84 138.53125 L 55 138.53125 Z M 55 86.78125 " clip-rule="nonzero"/></clipPath><clipPath id="fd846a3c2d"><path d="M 12.058594 60.304688 L 63.808594 60.304688 L 63.808594 89.554688 L 12.058594 89.554688 Z M 12.058594 60.304688 " clip-rule="nonzero"/></clipPath><clipPath id="410bc05e6e"><path d="M 75.429688 60.304688 L 127 60.304688 L 127 89.554688 L 75.429688 89.554688 Z M 75.429688 60.304688 " clip-rule="nonzero"/></clipPath><clipPath id="089c777a1d"><path d="M 2 0.601562 L 31 0.601562 L 31 56 L 2 56 Z M 2 0.601562 " clip-rule="nonzero"/></clipPath><clipPath id="aa9bddb97a"><rect x="0" width="208" y="0" height="69"/></clipPath></defs><g clip-path="url(#e8320fdb13)"><path fill="#000000" d="M 123.679688 114.929688 L 100.210938 128.476562 L 76.742188 142.027344 C 72.652344 144.386719 66.011719 144.386719 61.921875 142.027344 L 38.453125 128.476562 L 14.988281 114.929688 C 10.898438 112.566406 7.578125 106.816406 7.578125 102.09375 L 7.578125 47.898438 C 7.578125 43.175781 10.898438 37.421875 14.988281 35.0625 L 38.453125 21.511719 L 61.921875 7.964844 C 66.011719 5.601562 72.652344 5.601562 76.742188 7.964844 L 100.210938 21.511719 L 123.679688 35.0625 C 127.769531 37.421875 131.089844 43.175781 131.089844 47.898438 L 131.089844 102.09375 C 131.089844 106.816406 127.769531 112.566406 123.679688 114.929688 Z M 123.679688 114.929688 " fill-opacity="1" fill-rule="nonzero"/></g><g clip-path="url(#78ccc70a0a)"><path fill="#ffffff" d="M 83.976562 36.03125 C 84.007812 35.136719 83.167969 35.265625 81.554688 36.441406 C 79.25 38.128906 76.25 40.023438 73.277344 40.992188 L 73.277344 14.433594 C 73.277344 13.269531 72.34375 12.332031 71.179688 12.332031 L 68.089844 12.332031 C 66.929688 12.332031 65.992188 13.269531 65.992188 14.433594 L 65.992188 40.992188 C 63.023438 40.023438 60.019531 38.128906 57.714844 36.441406 C 55.382812 34.730469 54.660156 35.246094 55.898438 37.859375 L 67.402344 62.238281 C 67.984375 63.472656 69.457031 64 70.707031 63.421875 C 71.222656 63.171875 71.644531 62.753906 71.890625 62.238281 L 83.382812 37.871094 C 83.769531 37.054688 83.964844 36.441406 83.976562 36.03125 Z M 83.976562 36.03125 " fill-opacity="1" fill-rule="nonzero"/></g><g clip-path="url(#4622fd653c)"><path fill="#ffffff" d="M 83.976562 110.480469 C 84.007812 109.585938 83.167969 109.714844 81.554688 110.886719 C 79.25 112.578125 76.25 114.472656 73.277344 115.441406 L 73.277344 88.878906 C 73.277344 87.71875 72.34375 86.78125 71.179688 86.78125 L 68.089844 86.78125 C 66.929688 86.78125 65.992188 87.71875 65.992188 88.878906 L 65.992188 115.441406 C 63.023438 114.472656 60.019531 112.578125 57.714844 110.886719 C 55.382812 109.175781 54.660156 109.695312 55.898438 112.308594 L 67.402344 136.683594 C 67.984375 137.921875 69.457031 138.449219 70.707031 137.867188 C 71.222656 137.621094 71.644531 137.203125 71.890625 136.683594 L 83.382812 112.320312 C 83.769531 111.5 83.964844 110.886719 83.976562 110.480469 Z M 83.976562 110.480469 " fill-opacity="1" fill-rule="nonzero"/></g><g clip-path="url(#fd846a3c2d)"><path fill="#ffffff" d="M 35.753906 60.359375 C 34.863281 60.324219 34.992188 61.164062 36.164062 62.78125 C 37.851562 65.082031 39.746094 68.085938 40.714844 71.054688 L 14.15625 71.054688 C 12.992188 71.054688 12.058594 71.992188 12.058594 73.152344 L 12.058594 76.242188 C 12.058594 77.40625 12.992188 78.339844 14.15625 78.339844 L 40.714844 78.339844 C 39.746094 81.3125 37.851562 84.3125 36.164062 86.617188 C 34.453125 88.953125 34.96875 89.671875 37.585938 88.4375 L 61.960938 76.929688 C 63.199219 76.351562 63.726562 74.875 63.144531 73.628906 C 62.894531 73.109375 62.476562 72.691406 61.960938 72.445312 L 37.59375 60.949219 C 36.777344 60.5625 36.164062 60.367188 35.753906 60.359375 Z M 35.753906 60.359375 " fill-opacity="1" fill-rule="nonzero"/></g><g clip-path="url(#410bc05e6e)"><path fill="#ffffff" d="M 99.128906 60.359375 C 98.234375 60.324219 98.363281 61.164062 99.535156 62.78125 C 101.226562 65.082031 103.121094 68.085938 104.089844 71.054688 L 77.527344 71.054688 C 76.367188 71.054688 75.429688 71.992188 75.429688 73.152344 L 75.429688 76.242188 C 75.429688 77.40625 76.367188 78.339844 77.527344 78.339844 L 104.089844 78.339844 C 103.121094 81.3125 101.226562 84.3125 99.535156 86.617188 C 97.824219 88.953125 98.34375 89.671875 100.957031 88.4375 L 125.332031 76.929688 C 126.570312 76.351562 127.097656 74.875 126.515625 73.628906 C 126.269531 73.109375 125.847656 72.691406 125.332031 72.445312 L 100.96875 60.949219 C 100.148438 60.5625 99.535156 60.367188 99.128906 60.359375 Z M 99.128906 60.359375 " fill-opacity="1" fill-rule="nonzero"/></g><g transform="matrix(1, 0, 0, 1, 159, 39)"><g clip-path="url(#aa9bddb97a)"><g clip-path="url(#089c777a1d)"><g fill="#000000" fill-opacity="1"><g transform="translate(0.95142, 55.479289)"><g><path d="M 29.203125 -38.828125 L 29.203125 -30.015625 L 19.296875 -30.015625 L 19.296875 0 L 8.671875 0 L 8.671875 -30.015625 L 1.828125 -30.015625 L 1.828125 -38.828125 L 8.734375 -38.828125 L 8.734375 -42.390625 C 8.734375 -46.128906 9.773438 -49.113281 11.859375 -51.34375 C 13.953125 -53.582031 17.066406 -54.703125 21.203125 -54.703125 L 29.140625 -54.703125 L 29.140625 -46.328125 L 23.3125 -46.328125 C 20.445312 -46.328125 19.015625 -44.921875 19.015625 -42.109375 L 19.015625 -38.828125 Z M 29.203125 -38.828125 "/></g></g></g></g><g fill="#000000" fill-opacity="1"><g transform="translate(31.18003, 55.479289)"><g><path d="M 5.09375 0 L 5.09375 -53.546875 L 15.734375 -53.546875 L 15.734375 0 Z M 5.09375 0 "/></g></g></g><g fill="#000000" fill-opacity="1"><g transform="translate(52.012275, 55.479289)"><g><path d="M 23.8125 1.09375 C 19.738281 1.09375 16.097656 0.179688 12.890625 -1.640625 C 9.679688 -3.460938 7.15625 -5.9375 5.3125 -9.0625 C 3.46875 -12.195312 2.546875 -15.734375 2.546875 -19.671875 C 2.546875 -23.648438 3.46875 -27.203125 5.3125 -30.328125 C 7.15625 -33.460938 9.679688 -35.925781 12.890625 -37.71875 C 16.097656 -39.519531 19.738281 -40.421875 23.8125 -40.421875 C 27.84375 -40.421875 31.460938 -39.519531 34.671875 -37.71875 C 37.878906 -35.925781 40.40625 -33.460938 42.25 -30.328125 C 44.09375 -27.203125 45.015625 -23.648438 45.015625 -19.671875 C 45.015625 -15.734375 44.09375 -12.195312 42.25 -9.0625 C 40.40625 -5.9375 37.878906 -3.460938 34.671875 -1.640625 C 31.460938 0.179688 27.84375 1.09375 23.8125 1.09375 Z M 23.8125 -8.890625 C 26.875 -8.890625 29.375 -9.882812 31.3125 -11.875 C 33.257812 -13.863281 34.234375 -16.460938 34.234375 -19.671875 C 34.234375 -22.867188 33.257812 -25.460938 31.3125 -27.453125 C 29.375 -29.453125 26.875 -30.453125 23.8125 -30.453125 C 20.707031 -30.453125 18.179688 -29.453125 16.234375 -27.453125 C 14.296875 -25.460938 13.328125 -22.867188 13.328125 -19.671875 C 13.328125 -16.460938 14.296875 -13.863281 16.234375 -11.875 C 18.179688 -9.882812 20.707031 -8.890625 23.8125 -8.890625 Z M 23.8125 -8.890625 "/></g></g></g><g fill="#000000" fill-opacity="1"><g transform="translate(99.576815, 55.479289)"><g><path d="M 50.765625 -39.328125 L 61.328125 -39.328125 L 48.4375 0 L 39.921875 0 L 30.953125 -20.328125 L 22.21875 0 L 13.6875 0 L 0.65625 -39.328125 L 11.515625 -39.328125 L 19.234375 -15.875 L 29.5 -39.046875 L 32.484375 -39.046875 L 43.046875 -15.8125 Z M 50.765625 -39.328125 "/></g></g></g><g fill="#000000" fill-opacity="1"><g transform="translate(161.63651, 55.479289)"><g><path d="M 23.390625 1.09375 C 19.453125 1.09375 15.90625 0.171875 12.75 -1.671875 C 9.59375 -3.515625 7.101562 -6.015625 5.28125 -9.171875 C 3.457031 -12.328125 2.546875 -15.875 2.546875 -19.8125 C 2.546875 -23.75 3.457031 -27.269531 5.28125 -30.375 C 7.101562 -33.476562 9.59375 -35.925781 12.75 -37.71875 C 15.90625 -39.519531 19.472656 -40.421875 23.453125 -40.421875 C 26.859375 -40.421875 29.957031 -39.753906 32.75 -38.421875 C 35.539062 -37.085938 37.867188 -35.207031 39.734375 -32.78125 C 41.609375 -30.351562 42.859375 -27.535156 43.484375 -24.328125 L 32.921875 -24.328125 C 32.046875 -26.273438 30.769531 -27.78125 29.09375 -28.84375 C 27.425781 -29.914062 25.523438 -30.453125 23.390625 -30.453125 C 21.492188 -30.453125 19.78125 -29.976562 18.25 -29.03125 C 16.71875 -28.082031 15.515625 -26.804688 14.640625 -25.203125 C 13.765625 -23.597656 13.328125 -21.773438 13.328125 -19.734375 C 13.328125 -17.703125 13.765625 -15.867188 14.640625 -14.234375 C 15.515625 -12.609375 16.71875 -11.3125 18.25 -10.34375 C 19.78125 -9.375 21.492188 -8.890625 23.390625 -8.890625 C 25.566406 -8.890625 27.46875 -9.457031 29.09375 -10.59375 C 30.726562 -11.738281 32.003906 -13.378906 32.921875 -15.515625 L 43.640625 -15.515625 C 43.003906 -12.210938 41.738281 -9.3125 39.84375 -6.8125 C 37.945312 -4.3125 35.59375 -2.367188 32.78125 -0.984375 C 29.96875 0.398438 26.835938 1.09375 23.390625 1.09375 Z M 23.390625 1.09375 "/></g></g></g></g></g></svg>