<svg xmlns="http://www.w3.org/2000/svg" xmlns:xlink="http://www.w3.org/1999/xlink" width="500" zoomAndPan="magnify" viewBox="0 0 375 374.999991" height="500" preserveAspectRatio="xMidYMid meet" version="1.0"><defs><g/><clipPath id="5d4c2bfcef"><path d="M 70.15625 14 L 304.90625 14 L 304.90625 276 L 70.15625 276 Z M 70.15625 14 " clip-rule="nonzero"/></clipPath><clipPath id="391e1f0684"><path d="M 160 26.160156 L 215.414062 26.160156 L 215.414062 124 L 160 124 Z M 160 26.160156 " clip-rule="nonzero"/></clipPath><clipPath id="1a59acf09c"><path d="M 160 167.617188 L 215.414062 167.617188 L 215.414062 265.867188 L 160 265.867188 Z M 160 167.617188 " clip-rule="nonzero"/></clipPath><clipPath id="8f145670b6"><path d="M 78.660156 117.3125 L 176.910156 117.3125 L 176.910156 172 L 78.660156 172 Z M 78.660156 117.3125 " clip-rule="nonzero"/></clipPath><clipPath id="6253e2b899"><path d="M 199.074219 117.3125 L 297 117.3125 L 297 172 L 199.074219 172 Z M 199.074219 117.3125 " clip-rule="nonzero"/></clipPath></defs><g clip-path="url(#5d4c2bfcef)"><path fill="#000000" d="M 290.761719 221.117188 L 246.167969 246.859375 L 201.574219 272.605469 C 193.804688 277.09375 181.183594 277.09375 173.414062 272.605469 L 128.820312 246.859375 L 84.230469 221.117188 C 76.457031 216.628906 70.148438 205.699219 70.148438 196.726562 L 70.148438 93.746094 C 70.148438 84.773438 76.457031 73.84375 84.230469 69.355469 L 128.820312 43.609375 L 173.414062 17.867188 C 181.183594 13.378906 193.804688 13.378906 201.574219 17.867188 L 246.167969 43.609375 L 290.761719 69.355469 C 298.53125 73.84375 304.839844 84.773438 304.839844 93.746094 L 304.839844 196.726562 C 304.839844 205.699219 298.53125 216.628906 290.761719 221.117188 Z M 290.761719 221.117188 " fill-opacity="1" fill-rule="nonzero"/></g><g clip-path="url(#391e1f0684)"><path fill="#ffffff" d="M 215.316406 71.191406 C 215.378906 69.492188 213.78125 69.738281 210.714844 71.96875 C 206.339844 75.179688 200.632812 78.777344 194.988281 80.617188 L 194.988281 30.148438 C 194.988281 27.9375 193.210938 26.160156 191 26.160156 L 185.132812 26.160156 C 182.925781 26.160156 181.144531 27.9375 181.144531 30.148438 L 181.144531 80.617188 C 175.5 78.777344 169.796875 75.179688 165.417969 71.96875 C 160.980469 68.714844 159.613281 69.699219 161.964844 74.667969 L 183.824219 120.984375 C 184.929688 123.335938 187.730469 124.339844 190.101562 123.234375 C 191.082031 122.765625 191.882812 121.96875 192.351562 120.984375 L 214.191406 74.6875 C 214.929688 73.132812 215.296875 71.96875 215.316406 71.191406 Z M 215.316406 71.191406 " fill-opacity="1" fill-rule="nonzero"/></g><g clip-path="url(#1a59acf09c)"><path fill="#ffffff" d="M 215.316406 212.648438 C 215.378906 210.949219 213.78125 211.195312 210.714844 213.425781 C 206.339844 216.636719 200.632812 220.234375 194.988281 222.074219 L 194.988281 171.605469 C 194.988281 169.398438 193.210938 167.617188 191 167.617188 L 185.132812 167.617188 C 182.925781 167.617188 181.144531 169.398438 181.144531 171.605469 L 181.144531 222.074219 C 175.5 220.234375 169.796875 216.636719 165.417969 213.425781 C 160.980469 210.175781 159.613281 211.15625 161.964844 216.125 L 183.824219 262.445312 C 184.929688 264.796875 187.730469 265.796875 190.101562 264.691406 C 191.082031 264.222656 191.882812 263.425781 192.351562 262.445312 L 214.191406 216.144531 C 214.929688 214.589844 215.296875 213.425781 215.316406 212.648438 Z M 215.316406 212.648438 " fill-opacity="1" fill-rule="nonzero"/></g><g clip-path="url(#8f145670b6)"><path fill="#ffffff" d="M 123.691406 117.410156 C 121.992188 117.351562 122.238281 118.945312 124.46875 122.011719 C 127.679688 126.390625 131.277344 132.09375 133.117188 137.738281 L 82.648438 137.738281 C 80.4375 137.738281 78.660156 139.519531 78.660156 141.726562 L 78.660156 147.597656 C 78.660156 149.804688 80.4375 151.582031 82.648438 151.582031 L 133.117188 151.582031 C 131.277344 157.226562 127.679688 162.933594 124.46875 167.308594 C 121.214844 171.746094 122.199219 173.117188 127.167969 170.765625 L 173.484375 148.90625 C 175.835938 147.800781 176.839844 145 175.734375 142.625 C 175.265625 141.644531 174.46875 140.847656 173.484375 140.378906 L 127.1875 118.535156 C 125.632812 117.800781 124.46875 117.433594 123.691406 117.410156 Z M 123.691406 117.410156 " fill-opacity="1" fill-rule="nonzero"/></g><g clip-path="url(#6253e2b899)"><path fill="#ffffff" d="M 244.105469 117.410156 C 242.40625 117.351562 242.652344 118.945312 244.882812 122.011719 C 248.09375 126.390625 251.691406 132.09375 253.53125 137.738281 L 203.0625 137.738281 C 200.851562 137.738281 199.074219 139.519531 199.074219 141.726562 L 199.074219 147.597656 C 199.074219 149.804688 200.851562 151.582031 203.0625 151.582031 L 253.53125 151.582031 C 251.691406 157.226562 248.09375 162.933594 244.882812 167.308594 C 241.628906 171.746094 242.613281 173.117188 247.582031 170.765625 L 293.898438 148.90625 C 296.25 147.800781 297.253906 145 296.148438 142.625 C 295.679688 141.644531 294.882812 140.847656 293.898438 140.378906 L 247.601562 118.535156 C 246.046875 117.800781 244.882812 117.433594 244.105469 117.410156 Z M 244.105469 117.410156 " fill-opacity="1" fill-rule="nonzero"/></g><g fill="#000000" fill-opacity="1"><g transform="translate(84.38037, 340.435348)"><g><path d="M 29.203125 -38.828125 L 29.203125 -30.015625 L 19.296875 -30.015625 L 19.296875 0 L 8.671875 0 L 8.671875 -30.015625 L 1.828125 -30.015625 L 1.828125 -38.828125 L 8.734375 -38.828125 L 8.734375 -42.390625 C 8.734375 -46.128906 9.773438 -49.113281 11.859375 -51.34375 C 13.953125 -53.582031 17.066406 -54.703125 21.203125 -54.703125 L 29.140625 -54.703125 L 29.140625 -46.328125 L 23.3125 -46.328125 C 20.445312 -46.328125 19.015625 -44.921875 19.015625 -42.109375 L 19.015625 -38.828125 Z M 29.203125 -38.828125 "/></g></g></g><g fill="#000000" fill-opacity="1"><g transform="translate(114.610543, 340.435348)"><g><path d="M 5.09375 0 L 5.09375 -53.546875 L 15.734375 -53.546875 L 15.734375 0 Z M 5.09375 0 "/></g></g></g><g fill="#000000" fill-opacity="1"><g transform="translate(135.44387, 340.435348)"><g><path d="M 23.8125 1.09375 C 19.738281 1.09375 16.097656 0.179688 12.890625 -1.640625 C 9.679688 -3.460938 7.15625 -5.9375 5.3125 -9.0625 C 3.46875 -12.195312 2.546875 -15.734375 2.546875 -19.671875 C 2.546875 -23.648438 3.46875 -27.203125 5.3125 -30.328125 C 7.15625 -33.460938 9.679688 -35.925781 12.890625 -37.71875 C 16.097656 -39.519531 19.738281 -40.421875 23.8125 -40.421875 C 27.84375 -40.421875 31.460938 -39.519531 34.671875 -37.71875 C 37.878906 -35.925781 40.40625 -33.460938 42.25 -30.328125 C 44.09375 -27.203125 45.015625 -23.648438 45.015625 -19.671875 C 45.015625 -15.734375 44.09375 -12.195312 42.25 -9.0625 C 40.40625 -5.9375 37.878906 -3.460938 34.671875 -1.640625 C 31.460938 0.179688 27.84375 1.09375 23.8125 1.09375 Z M 23.8125 -8.890625 C 26.875 -8.890625 29.375 -9.882812 31.3125 -11.875 C 33.257812 -13.863281 34.234375 -16.460938 34.234375 -19.671875 C 34.234375 -22.867188 33.257812 -25.460938 31.3125 -27.453125 C 29.375 -29.453125 26.875 -30.453125 23.8125 -30.453125 C 20.707031 -30.453125 18.179688 -29.453125 16.234375 -27.453125 C 14.296875 -25.460938 13.328125 -22.867188 13.328125 -19.671875 C 13.328125 -16.460938 14.296875 -13.863281 16.234375 -11.875 C 18.179688 -9.882812 20.707031 -8.890625 23.8125 -8.890625 Z M 23.8125 -8.890625 "/></g></g></g><g fill="#000000" fill-opacity="1"><g transform="translate(183.010857, 340.435348)"><g><path d="M 50.765625 -39.328125 L 61.328125 -39.328125 L 48.4375 0 L 39.921875 0 L 30.953125 -20.328125 L 22.21875 0 L 13.6875 0 L 0.65625 -39.328125 L 11.515625 -39.328125 L 19.234375 -15.875 L 29.5 -39.046875 L 32.484375 -39.046875 L 43.046875 -15.8125 Z M 50.765625 -39.328125 "/></g></g></g><g fill="#000000" fill-opacity="1"><g transform="translate(245.073765, 340.435348)"><g><path d="M 23.390625 1.09375 C 19.453125 1.09375 15.90625 0.171875 12.75 -1.671875 C 9.59375 -3.515625 7.101562 -6.015625 5.28125 -9.171875 C 3.457031 -12.328125 2.546875 -15.875 2.546875 -19.8125 C 2.546875 -23.75 3.457031 -27.269531 5.28125 -30.375 C 7.101562 -33.476562 9.59375 -35.925781 12.75 -37.71875 C 15.90625 -39.519531 19.472656 -40.421875 23.453125 -40.421875 C 26.859375 -40.421875 29.957031 -39.753906 32.75 -38.421875 C 35.539062 -37.085938 37.867188 -35.207031 39.734375 -32.78125 C 41.609375 -30.351562 42.859375 -27.535156 43.484375 -24.328125 L 32.921875 -24.328125 C 32.046875 -26.273438 30.769531 -27.78125 29.09375 -28.84375 C 27.425781 -29.914062 25.523438 -30.453125 23.390625 -30.453125 C 21.492188 -30.453125 19.78125 -29.976562 18.25 -29.03125 C 16.71875 -28.082031 15.515625 -26.804688 14.640625 -25.203125 C 13.765625 -23.597656 13.328125 -21.773438 13.328125 -19.734375 C 13.328125 -17.703125 13.765625 -15.867188 14.640625 -14.234375 C 15.515625 -12.609375 16.71875 -11.3125 18.25 -10.34375 C 19.78125 -9.375 21.492188 -8.890625 23.390625 -8.890625 C 25.566406 -8.890625 27.46875 -9.457031 29.09375 -10.59375 C 30.726562 -11.738281 32.003906 -13.378906 32.921875 -15.515625 L 43.640625 -15.515625 C 43.003906 -12.210938 41.738281 -9.3125 39.84375 -6.8125 C 37.945312 -4.3125 35.59375 -2.367188 32.78125 -0.984375 C 29.96875 0.398438 26.835938 1.09375 23.390625 1.09375 Z M 23.390625 1.09375 "/></g></g></g></svg>