<svg xmlns="http://www.w3.org/2000/svg" xmlns:xlink="http://www.w3.org/1999/xlink" width="500" zoomAndPan="magnify" viewBox="0 0 375 374.999991" height="500" preserveAspectRatio="xMidYMid meet" version="1.0"><defs><clipPath id="8449ba1c1b"><path d="M 31.621094 13 L 343.621094 13 L 343.621094 362 L 31.621094 362 Z M 31.621094 13 " clip-rule="nonzero"/></clipPath><clipPath id="e351dc884f"><path d="M 152 29.316406 L 224.589844 29.316406 L 224.589844 159 L 152 159 Z M 152 29.316406 " clip-rule="nonzero"/></clipPath><clipPath id="d4a4300a2d"><path d="M 152 217.226562 L 224.589844 217.226562 L 224.589844 347 L 152 347 Z M 152 217.226562 " clip-rule="nonzero"/></clipPath><clipPath id="bfd8b1313a"><path d="M 42.917969 150.40625 L 173 150.40625 L 173 223 L 42.917969 223 Z M 42.917969 150.40625 " clip-rule="nonzero"/></clipPath><clipPath id="6cb7abd36c"><path d="M 202.875 150.40625 L 333 150.40625 L 333 223 L 202.875 223 Z M 202.875 150.40625 " clip-rule="nonzero"/></clipPath></defs><g clip-path="url(#8449ba1c1b)"><path fill="#ffffff" d="M 324.679688 288.296875 L 206.203125 356.695312 C 195.878906 362.660156 179.117188 362.660156 168.792969 356.695312 L 109.554688 322.496094 L 50.320312 288.296875 C 39.996094 282.335938 31.613281 267.816406 31.613281 255.898438 L 31.613281 119.09375 C 31.613281 107.175781 39.996094 92.65625 50.320312 86.695312 L 109.554688 52.492188 L 168.792969 18.292969 C 179.117188 12.332031 195.878906 12.332031 206.203125 18.292969 L 265.441406 52.492188 L 324.679688 86.695312 C 335.003906 92.65625 343.382812 107.175781 343.382812 119.09375 L 343.382812 255.898438 C 343.382812 267.816406 335.003906 282.335938 324.679688 288.296875 Z M 324.679688 288.296875 " fill-opacity="1" fill-rule="nonzero"/></g><g clip-path="url(#e351dc884f)"><path fill="#000000" d="M 224.460938 89.140625 C 224.539062 86.886719 222.421875 87.210938 218.347656 90.171875 C 212.53125 94.4375 204.953125 99.21875 197.453125 101.664062 L 197.453125 34.617188 C 197.453125 31.679688 195.089844 29.316406 192.15625 29.316406 L 184.359375 29.316406 C 181.425781 29.316406 179.0625 31.679688 179.0625 34.617188 L 179.0625 101.664062 C 171.566406 99.21875 163.984375 94.4375 158.171875 90.171875 C 152.277344 85.851562 150.457031 87.15625 153.578125 93.757812 L 182.621094 155.292969 C 184.089844 158.417969 187.8125 159.746094 190.960938 158.28125 C 192.265625 157.65625 193.324219 156.597656 193.949219 155.292969 L 222.964844 93.785156 C 223.941406 91.722656 224.433594 90.171875 224.460938 89.140625 Z M 224.460938 89.140625 " fill-opacity="1" fill-rule="nonzero"/></g><g clip-path="url(#d4a4300a2d)"><path fill="#000000" d="M 224.460938 277.050781 C 224.539062 274.792969 222.421875 275.121094 218.347656 278.082031 C 212.53125 282.347656 204.953125 287.128906 197.453125 289.574219 L 197.453125 222.523438 C 197.453125 219.589844 195.089844 217.226562 192.15625 217.226562 L 184.359375 217.226562 C 181.425781 217.226562 179.0625 219.589844 179.0625 222.523438 L 179.0625 289.574219 C 171.566406 287.128906 163.984375 282.347656 158.171875 278.082031 C 152.277344 273.761719 150.457031 275.066406 153.578125 281.667969 L 182.621094 343.199219 C 184.089844 346.324219 187.8125 347.65625 190.960938 346.191406 C 192.265625 345.566406 193.324219 344.503906 193.949219 343.199219 L 222.964844 281.695312 C 223.941406 279.628906 224.433594 278.082031 224.460938 277.050781 Z M 224.460938 277.050781 " fill-opacity="1" fill-rule="nonzero"/></g><g clip-path="url(#bfd8b1313a)"><path fill="#000000" d="M 102.742188 150.535156 C 100.488281 150.457031 100.8125 152.574219 103.773438 156.648438 C 108.039062 162.464844 112.820312 170.042969 115.265625 177.542969 L 48.21875 177.542969 C 45.285156 177.542969 42.917969 179.90625 42.917969 182.839844 L 42.917969 190.636719 C 42.917969 193.570312 45.285156 195.933594 48.21875 195.933594 L 115.265625 195.933594 C 112.820312 203.429688 108.039062 211.011719 103.773438 216.824219 C 99.453125 222.71875 100.757812 224.539062 107.359375 221.417969 L 168.894531 192.375 C 172.019531 190.90625 173.347656 187.183594 171.882812 184.035156 C 171.257812 182.730469 170.199219 181.671875 168.894531 181.046875 L 107.386719 152.03125 C 105.324219 151.054688 103.773438 150.5625 102.742188 150.535156 Z M 102.742188 150.535156 " fill-opacity="1" fill-rule="nonzero"/></g><g clip-path="url(#6cb7abd36c)"><path fill="#000000" d="M 262.695312 150.535156 C 260.441406 150.457031 260.769531 152.574219 263.730469 156.648438 C 267.992188 162.464844 272.777344 170.042969 275.21875 177.542969 L 208.171875 177.542969 C 205.238281 177.542969 202.875 179.90625 202.875 182.839844 L 202.875 190.636719 C 202.875 193.570312 205.238281 195.933594 208.171875 195.933594 L 275.21875 195.933594 C 272.777344 203.429688 267.992188 211.011719 263.730469 216.824219 C 259.410156 222.71875 260.714844 224.539062 267.316406 221.417969 L 328.847656 192.375 C 331.972656 190.90625 333.304688 187.183594 331.835938 184.035156 C 331.210938 182.730469 330.152344 181.671875 328.847656 181.046875 L 267.34375 152.03125 C 265.277344 151.054688 263.730469 150.5625 262.695312 150.535156 Z M 262.695312 150.535156 " fill-opacity="1" fill-rule="nonzero"/></g></svg>